<svg xmlns="http://www.w3.org/2000/svg" version="1.1" xmlns:xlink="http://www.w3.org/1999/xlink" xmlns:svgjs="http://svgjs.dev/svgjs" width="1500" height="1500" viewBox="0 0 1500 1500"><rect width="1500" height="1500" fill="#000000"></rect><g transform="matrix(0.6666666666666666,0,0,0.6666666666666666,248.44253788424248,189.33333333333348)"><svg viewBox="0 0 321 360" data-background-color="#ffffff" preserveAspectRatio="xMidYMid meet" height="1682" width="1500" xmlns="http://www.w3.org/2000/svg" xmlns:xlink="http://www.w3.org/1999/xlink"><g id="tight-bounds" transform="matrix(1,0,0,1,0.5000546608418972,0)"><svg viewBox="0 0 320 360" height="360" width="320"><g><svg></svg></g><g><svg viewBox="0 0 320 360" height="360" width="320"><g><path transform="translate(-119.39272,-98.31927) scale(5.58313,5.58313)" d="M36.7 23.5c0-0.2 0.1-0.4 0.3-0.4 0.2 0 0.4 0.1 0.4 0.4 0.1 0 0.3 0 0.4-0.1 0.4 0 0.8-0.1 1.1 0 0.3 0.1 0.5 0.1 0.8 0.2 0.3 0.1 0.5 0 0.7-0.1 0.4-0.1 0.7-0.3 1.1-0.4 0.2-0.1 0.3-0.1 0.5-0.1 0.2-0.1 0.4-0.1 0.7-0.2 0.5-0.1 1-0.2 1.4-0.4 0.4-0.2 0.8-0.2 1.2-0.3 0.2 0 0.3-0.1 0.5-0.2 0.1 0 0.1-0.1 0.2-0.2 0.2-0.1 0.3-0.2 0.5-0.1 0.1 0.1 0.3 0.1 0.4 0h0.1c0.6 0 1.2-0.1 1.9 0 0.1 0 0.2 0 0.2 0 0.3-0.2 0.7-0.2 1.1-0.2 0.1 0 0.3 0 0.4 0h0.1c0.4 0 0.8 0 1.1 0.1 0.3 0 0.5 0.1 0.8 0.2 0.3 0 0.5 0 0.8 0.1 0.2 0 0.4 0 0.6 0 0.1 0 0.2 0 0.2 0 0.4 0.1 0.8 0.1 1.2 0.1 0.3 0.1 0.6 0.2 1 0.2 0.1 0 0.2 0 0.3 0 0.1 0 0.2 0.1 0.3 0.1l0.1 0.1c0.4 0 0.7 0.2 1.1 0.2 0.1 0 0.3 0 0.4 0.1 0.3 0.2 0.7 0.3 1.1 0.3 0.2 0 0.3 0.1 0.4 0.2 0.3 0.1 0.5 0.2 0.8 0.3 0.2 0.1 0.4 0 0.6 0.1 0.3 0.1 0.7 0.2 1 0.5 0.2 0.2 0.4 0.2 0.7 0.4 0.1 0 0.2 0.1 0.3 0.2 0.3 0.2 0.6 0.4 0.9 0.5 0.1 0 0.2 0.1 0.3 0.1 0.3 0.2 0.6 0.5 1 0.7 0.2 0.1 0.3 0.2 0.5 0.3h0.1c0.3 0.3 0.7 0.5 1 0.8 0.3 0.3 0.5 0.5 0.9 0.7 0 0 0 0 0 0.1 0.1 0.2 0.2 0.3 0.4 0.4 0.2 0.1 0.3 0.2 0.4 0.3 0.3 0.2 0.6 0.4 0.8 0.6 0.1 0.1 0.2 0.2 0.4 0.4 0.1 0.1 0.2 0.2 0.3 0.2 0.4 0.1 0.6 0.4 0.9 0.7 0.2 0.2 0.5 0.5 0.7 0.7 0.1 0.1 0.2 0.3 0.3 0.5 0.2 0.6 0.5 1.2 0.8 1.7 0 0 0 0.1 0.1 0.2v0.1c0.2 0.2 0.3 0.5 0.5 0.7 0.1 0.1 0.1 0.2 0.2 0.3 0.2 0.3 0.3 0.7 0.5 1 0.3 0.5 0.5 1 0.7 1.5v0.1c0.1 0.2 0.2 0.4 0.3 0.7 0 0.2 0.2 0.4 0.3 0.7 0.1 0.5 0.4 1 0.5 1.6 0 0.1 0.1 0.2 0.1 0.4 0.1 0.3 0.2 0.6 0.3 0.9 0 0.1 0.1 0.2 0.2 0.3 0.2 0.2 0.2 0.4 0.2 0.6-0.1 0.4 0 0.8 0.1 1.2 0 0.1 0 0.2 0 0.4 0.1 0.4 0.2 0.9 0.2 1.3 0 0.1 0 0.3 0 0.4 0 0.3 0.1 0.6 0.3 0.9 0 0.1 0.1 0.1 0.1 0.1 0.1 0.1 0.2 0.3 0.3 0.4 0.1 0.1 0.1 0.1 0.2 0.2 0.2 0.2 0.3 0.4 0.3 0.7 0 0.1-0.1 0.3-0.1 0.4 0 0.1 0 0.3 0.1 0.4 0.1 0.1 0.1 0.2 0.1 0.3 0 0.1-0.1 0.2-0.2 0.2v0c-0.1 0.3-0.5 0.4-0.6 0.7-0.1 0.4-0.2 0.8-0.3 1.2-0.1 0.3-0.1 0.5-0.1 0.8 0 0.3-0.1 0.5-0.1 0.8-0.1 0.4-0.2 0.8-0.3 1.2 0 0.2-0.1 0.4-0.1 0.6 0.1 0.1 0.2 0.2 0.3 0.2 0.2 0.2 0.4 0.4 0.6 0.6 0.1 0.1 0.1 0.2 0 0.2-0.1 0.1-0.2 0.1-0.3 0.1-0.1-0.1-0.3-0.2-0.4-0.2-0.1-0.1-0.3-0.2-0.5-0.1 0 0.2-0.1 0.4-0.1 0.5-0.1 0.2-0.2 0.5-0.2 0.7-0.1 0.4-0.3 0.7-0.4 1.1-0.2 0.5-0.4 0.9-0.6 1.3-0.1 0.2-0.2 0.4-0.3 0.6v0c0 0.3-0.3 0.6-0.4 0.9-0.2 0.4-0.4 0.8-0.6 1.3-0.1 0.2-0.2 0.4-0.3 0.5-0.2 0.5-0.4 0.9-0.7 1.3-0.2 0.3-0.4 0.5-0.6 0.6-0.2 0.2-0.4 0.4-0.6 0.6-0.1 0.1-0.2 0.2-0.3 0.3-0.1 0.1-0.1 0.1-0.2 0.2-0.2 0.3-0.5 0.5-0.7 0.8-0.2 0.2-0.3 0.4-0.6 0.6-0.2 0.2-0.4 0.5-0.7 0.6-0.1 0.1-0.2 0.3-0.3 0.4-0.1 0.1-0.2 0.3-0.3 0.4 0 0.2 0.1 0.4 0.1 0.5 0 0.3-0.3 0.4-0.5 0.2-0.3-0.2-0.3-0.2-0.6 0-0.3 0.2-0.6 0.5-1 0.6-0.1 0-0.1 0.1-0.2 0.1-0.2 0.1-0.3 0.3-0.5 0.4-0.2 0.2-0.5 0.3-0.7 0.5-0.1 0.1-0.2 0.1-0.3 0.2-0.3 0.2-0.6 0.3-0.9 0.6-0.1 0.1-0.2 0.1-0.3 0.2 0 0.1 0 0.1 0 0.2 0 0.2-0.2 0.4-0.5 0.3-0.3-0.1-0.5 0-0.8 0-0.3 0.1-0.6 0.3-0.9 0.4-0.1 0-0.2 0.1-0.3 0.2-0.3 0.2-0.6 0.3-0.9 0.4-0.2 0-0.4 0.2-0.6 0.2-0.1 0-0.2 0.1-0.3 0.1h-0.1c-0.4 0.3-0.8 0.5-1.2 0.8-0.1 0-0.1 0.1-0.2 0.2-0.1 0.2-0.2 0.3-0.4 0.3-0.5 0-0.7 0.4-0.6 0.8 0 0.1 0.1 0.2 0.1 0.3 0.1 0.2 0 0.4-0.1 0.5-0.1 0.1-0.4 0.1-0.5-0.1-0.2-0.2-0.3-0.4-0.4-0.7-0.1-0.2-0.3-0.4-0.5-0.5-0.2-0.1-0.4-0.1-0.6 0-0.1 0-0.1 0.1-0.2 0.1-0.2 0.2-0.5 0.3-0.8 0.2-0.1 0-0.3 0-0.3 0.1-0.1 0.1-0.1 0.3 0 0.4 0.2 0.2 0.1 0.4 0.1 0.7 0 0.4-0.3 0.6-0.7 0.4-0.1-0.1-0.2-0.1-0.3-0.2-0.1 0-0.1-0.1-0.1-0.2-0.1-0.1-0.1-0.3-0.2-0.5-0.2 0.1-0.4 0.1-0.6 0.2-0.1 0-0.2 0.1-0.3 0.1-0.3 0-0.4 0-0.5-0.3-0.1-0.3-0.3-0.3-0.5-0.4-0.4-0.1-0.9-0.1-1.3-0.3h-0.1c-0.4-0.3-0.8-0.3-1.3-0.3-0.3 0-0.6 0.1-0.9 0.1-0.3 0-0.5 0.1-0.7 0.3-0.1 0.1-0.2 0.2-0.3 0.2-0.1-0.1-0.1-0.2-0.2-0.3v-0.1c0-0.1-0.1-0.2-0.2-0.1-0.2 0.1-0.4-0.1-0.6-0.2-0.1-0.1-0.3-0.3-0.3-0.5-0.1-0.1-0.2-0.2-0.3-0.2-0.2 0-0.5-0.1-0.7-0.1-0.1 0-0.2 0-0.2-0.1-0.1-0.1-0.2-0.1-0.4-0.1-0.1 0-0.1-0.1-0.2-0.1 0.2 0.2 0.3 0.4 0.4 0.6 0 0.1 0.1 0.1 0.1 0.2 0.1 0.2 0 0.3-0.3 0.3-0.2 0-0.2 0-0.3 0.1 0 0.2 0 0.3 0 0.5 0 0.1 0 0.2-0.2 0.3 0 0-0.1 0-0.1 0.1-0.1 0.1-0.1 0.2 0 0.3 0.3 0.2 0.5 0.3 0.8 0.4 0.3 0 0.3 0.2 0.4 0.4 0.1 0.2 0 0.3-0.1 0.5-0.2 0.2-0.4 0.4-0.6 0.6-0.3 0.1-0.5 0.4-0.8 0.4-0.2 0-0.4-0.1-0.5-0.3-0.1-0.5-0.1-0.9 0.1-1.4 0-0.1 0.1-0.2 0-0.3-0.9 0-0.9-0.2-0.9-0.3 0-0.2 0.1-0.3 0.1-0.5 0.1-0.2 0-0.3-0.3-0.4-0.1 0-0.2 0-0.3 0-0.1 0-0.1-0.1-0.3-0.1 0.2-0.1 0.3-0.1 0.5-0.2-0.1-0.4-0.2-0.7-0.5-0.9-0.1-0.1-0.2-0.2-0.2-0.4 0-0.3-0.2-0.5-0.3-0.7-0.2-0.3-0.6-0.4-0.9-0.4-0.3-0.1-0.5-0.1-0.8-0.2-0.3-0.1-0.6-0.4-0.9-0.5-0.1-0.1-0.2-0.2-0.4-0.3-0.4-0.2-0.7-0.5-1-0.8-0.2-0.1-0.3-0.3-0.5-0.4-0.2-0.2-0.3-0.4-0.5-0.5-0.2-0.2-0.4-0.4-0.7-0.6-0.3-0.2-0.5-0.5-0.8-0.8-0.2-0.3-0.5-0.5-0.8-0.7-0.1 0-0.2 0-0.3 0-0.1 0-0.2 0.1-0.3 0.1-0.3 0.1-0.5 0.3-0.8 0.4 0.1-0.1 0.1-0.1 0-0.3-0.1-0.1-0.2-0.2-0.3-0.2-0.2 0-0.4 0-0.6 0-0.4 0-0.8 0.1-1.2 0.1-0.3 0-0.7 0.1-1 0.2 0.1 0.2 0.1 0.3 0.2 0.5-0.2 0.1-0.4 0.1-0.6 0.1-0.1 0-0.3 0.1-0.4 0.2-0.1 0-0.1 0.1-0.2 0-0.2-0.1-0.4 0-0.6 0.1h-0.1c0 0 0-0.1 0.1-0.1 0.1-0.1 0.2-0.2 0.3-0.3 0.1-0.1 0.2-0.1 0.4-0.2-0.1-0.1-0.1-0.2-0.1-0.2-0.1-0.1-0.2-0.1-0.3 0-0.1 0.1-0.2 0.2-0.3 0.3-0.1 0.1-0.2 0.1-0.3 0-0.1-0.1-0.1-0.2 0-0.3 0-0.1 0.1-0.2 0.2-0.3 0.1-0.1 0.1-0.2 0.2-0.3-0.2-0.2-0.3-0.4-0.5-0.5-0.3-0.2-0.6-0.5-0.8-0.8-0.2-0.4-0.5-0.7-0.9-0.9-0.1-0.1-0.2-0.2-0.3-0.3-0.1-0.1-0.1-0.1-0.2-0.2-0.3 0.1-0.5 0.3-0.8 0.4-0.1 0-0.1 0.1-0.2 0.2-0.1 0.2-0.3 0.2-0.5 0.2-0.1 0-0.2-0.1-0.1-0.2 0.1-0.2 0.2-0.4 0.5-0.3 0 0 0.1 0 0.1-0.1 0.2-0.2 0.4-0.5 0.7-0.7-0.1-0.3-0.3-0.5-0.4-0.7-0.1-0.1-0.1-0.2-0.1-0.4 0-0.1 0-0.1-0.1-0.2 0 0-0.1 0-0.2 0.1-0.1 0.1-0.3 0.2-0.5 0 0-0.1 0-0.2 0.1-0.3l0.1-0.1c0.3-0.1 0.3-0.4 0.3-0.7v-0.1c-0.1-0.2-0.1-0.3 0.1-0.5 0.3-0.2 0.6-0.6 0.7-0.9 0.1-0.2 0.3-0.3 0.5-0.5 0.2-0.2 0.4-0.4 0.5-0.7h0.1c0.4 0.1 0.5-0.2 0.7-0.5 0-0.1 0-0.2 0.1-0.2 0.2-0.2 0.2-0.4 0.1-0.7 0-0.1-0.1-0.3-0.1-0.4 0-0.1 0-0.1-0.1-0.2-0.3-0.2-0.3-0.4 0-0.6 0.2-0.1 0.2-0.3 0.3-0.4 0.1-0.2 0.1-0.4 0.1-0.7-0.1-0.3-0.1-0.7-0.2-1-0.1-0.4-0.2-0.9-0.3-1.3 0-0.1 0-0.1 0-0.2 0-0.3 0-0.5-0.1-0.8-0.1-0.1-0.1-0.3-0.1-0.4-0.1-0.3-0.2-0.5-0.5-0.6-0.3-0.2-0.7-0.3-1-0.5-0.1-0.1-0.2 0-0.3 0.1-0.1 0.2-0.3 0.4-0.4 0.6-0.1 0.1-0.2 0.3-0.3 0.5-0.2 0.2-0.6 0.4-0.9 0.1-0.1-0.2-0.2-0.3 0-0.5 0.2-0.3 0.4-0.6 0.7-0.8 0.1-0.1 0.2-0.3 0.3-0.4 0.1-0.2 0.1-0.4 0.1-0.6-0.1-0.4-0.2-0.8-0.2-1.3 0-0.5 0-0.9 0.1-1.4 0.1-0.2 0.1-0.5 0.2-0.7 0-0.1 0.1-0.3 0.2-0.4 0.2-0.2 0.4-0.4 0.5-0.7 0.1-0.3 0.3-0.6 0.3-0.9 0-0.1 0.1-0.2 0.1-0.3 0-0.1 0.1-0.3 0.1-0.4-0.1-0.3 0-0.5 0.1-0.7 0.1-0.2 0.2-0.5 0.3-0.7 0.2-0.4 0.2-0.9 0.6-1.3 0.1-0.2 0.2-0.4 0.3-0.6 0.1-0.4 0.3-0.7 0.5-1 0.1-0.1 0.1-0.1 0.1-0.2 0.1-0.3 0.3-0.6 0.5-0.9 0.2-0.3 0.2-0.6 0.3-0.9 0-0.1 0-0.2 0.1-0.3 0.3-0.3 0.2-0.7 0.1-1.1-0.2-0.5-0.3-1-0.2-1.5 0-0.1 0-0.2 0.1-0.2 0.1-0.2 0.1-0.3 0.2-0.5v-0.1c0.2-0.2 0.4-0.5 0.7-0.6 0.4-0.2 0.8-0.3 1.3-0.4 0.4 0 0.8-0.2 1.1-0.6 0-0.1 0.1-0.1 0.2-0.2l0.1-0.1c0.1-0.2 0.2-0.3 0.3-0.4 0.2-0.2 0.4-0.5 0.6-0.7 0.2-0.2 0.4-0.5 0.7-0.8l0.1-0.1c0.2-0.2 0.4-0.4 0.6-0.5 0.2-0.2 0.4-0.4 0.6-0.6 0.2-0.2 0.3-0.4 0.5-0.6 0.2-0.1 0.4-0.3 0.6-0.5 0.2-0.2 0.4-0.4 0.5-0.5 0.2-0.2 0.5-0.4 0.7-0.5 0.2-0.1 0.4-0.2 0.5-0.5 0.1-0.3 0.2-0.5 0.3-0.8 0-0.2 0.1-0.4 0.2-0.6 0.1 0 0.2 0 0.4-0.1-0.1-0.1-0.2-0.1-0.2-0.2 0-0.1 0.1-0.2 0.1-0.2 0-0.1 0.1-0.2 0.1-0.3 0 0 0.1 0 0.1-0.1 0 0 0.1 0 0.1-0.1-0.2 0.1-0.3 0-0.4-0.1 0.1 0.1 0.2 0.1 0.4 0.2 0 0 0.1 0 0.1-0.1 0-0.1 0-0.2 0-0.2 0 0-0.1 0-0.2 0-0.1 0-0.2 0.1-0.3 0.1zM54 70.5c0-0.1-0.1-0.1-0.1-0.2-0.1-0.2 0-0.3 0.1-0.4 0.1-0.1 0.2-0.1 0.4-0.1 0.2 0.1 0.3 0.2 0.3 0.4 0 0.1 0 0.3 0 0.4 0.1 0.4 0.1 0.4 0.5 0.4 0.2 0 0.4 0 0.6 0 0.4-0.1 0.8-0.3 1.2-0.4 0.4-0.1 0.8-0.2 1.2-0.3 0.1 0 0.2 0 0.4 0 0.4 0.1 0.7 0 1-0.2 0.1-0.1 0.3-0.1 0.4-0.2 0.2-0.1 0.4-0.1 0.6-0.2 0.5-0.3 1-0.5 1.4-0.8 0.3-0.2 0.6-0.4 0.9-0.6 0.3-0.2 0.6-0.4 0.9-0.6 0.2-0.1 0.5-0.3 0.7-0.5 0.4-0.3 0.7-0.6 1.1-0.8 0.2-0.1 0.3-0.2 0.4-0.3 0.2-0.1 0.3-0.3 0.5-0.4 0.1-0.1 0.2-0.2 0.4-0.3 0.1-0.1 0.1-0.1 0.1-0.2 0.3-0.2 0.6-0.6 0.8-0.9 0.2-0.2 0.4-0.4 0.6-0.7 0.3-0.3 0.5-0.7 0.8-1.1 0.2-0.2 0.4-0.5 0.5-0.7 0.2-0.4 0.4-0.8 0.7-1.1v-0.1c0.2-0.4 0.4-0.8 0.6-1.2 0.3-0.5 0.5-1.1 0.8-1.6 0.1-0.2 0.2-0.4 0.2-0.6 0.2-0.4 0.3-0.8 0.4-1.2 0-0.1 0-0.1 0.1-0.2 0.3-0.6 0.5-1.2 0.6-1.9 0.1-0.4 0.2-0.8 0.3-1.2 0.2-0.6 0.2-1.1 0.3-1.7 0.1-0.4 0.1-0.9 0.1-1.3 0.1-0.6 0.1-1.3 0-1.9 0-0.5-0.1-1.1-0.1-1.6 0-0.5-0.1-0.9-0.2-1.4-0.1-0.5-0.2-0.9-0.3-1.4-0.2-0.4-0.3-0.8-0.4-1.3-0.1-0.4-0.3-0.7-0.3-1.1 0-0.3-0.1-0.6-0.4-0.7-0.3-0.1-0.5-0.2-0.8-0.4-0.6-0.4-0.9-0.9-0.8-1.5 0-0.3 0.1-0.7 0.2-1 0.1-0.3 0.2-0.6 0-0.8-0.1-0.3-0.3-0.5-0.4-0.7-0.2-0.3-0.3-0.5-0.5-0.7-0.2-0.4-0.4-0.8-0.7-1.1-0.4-0.5-0.7-1-1.2-1.4l-0.1-0.1c-0.3-0.4-0.6-0.8-1-1.1-0.2-0.2-0.4-0.4-0.6-0.5-0.1-0.1-0.2-0.2-0.4-0.3-0.3-0.2-0.6-0.3-0.8-0.5-0.3-0.3-0.7-0.5-1-0.7 0 0-0.1 0-0.1-0.1-0.4-0.2-0.7-0.3-1.1-0.5-0.4-0.2-0.8-0.3-1.2-0.3-0.1 0-0.1 0-0.2 0-0.1-0.1-0.3-0.1-0.4-0.1-0.1 0-0.1 0-0.2 0-0.2-0.1-0.5 0-0.7 0-0.4 0.1-0.8 0.1-1.2-0.1-0.5-0.2-0.9-0.4-1.3-0.6-0.3-0.2-0.5-0.4-0.8-0.6-0.6-0.5-1.2-1.1-1.9-1.6 0.1-0.5-0.1-0.6-0.5-0.6-0.2 0-0.4 0.1-0.6 0.2-0.1 0.1-0.1 0.1-0.2 0.2-0.3 0.2-0.5 0.5-0.8 0.7-0.5 0.3-0.7 0.2-1.1 0-0.1-0.1-0.2-0.2-0.3-0.3-0.2-0.2-0.4-0.5-0.5-0.7-0.2-0.4-0.6-0.4-1-0.4-0.2 0-0.5 0.1-0.7 0.1-0.4 0-0.8 0.2-1 0.5-0.2 0.3-0.4 0.6-0.7 0.9-0.1 0.1-0.3 0.2-0.4 0.4-0.2 0.2-0.4 0.2-0.6 0-0.1-0.1-0.2-0.1-0.3-0.2-0.1 0.1-0.2 0.2-0.2 0.3-0.1 0.2-0.2 0.4-0.3 0.7-0.1 0.3-0.3 0.6-0.5 0.8-0.1 0.1-0.1 0.1-0.2 0.2-0.1 0.2-0.4 0.3-0.6 0.3-0.2 0.2-0.4 0.5-0.5 0.7-0.1 0.2-0.2 0.4-0.3 0.7-0.1 0.1-0.1 0.3-0.2 0.4-0.1 0.2-0.1 0.3-0.1 0.5 0.1 0.3-0.1 0.4-0.4 0.5-0.2 0-0.2 0-0.3 0.2 0 0.3 0.1 0.5 0.2 0.8 0.1 0.1 0.2 0.3 0.2 0.4 0 0.2 0.1 0.3 0.3 0.4 0.1 0.1 0.2 0.2 0.3 0.2 0.1 0 0.1 0.1 0.2 0.1 0.1 0.1 0.2 0 0.2-0.1 0.1-0.3 0.2-0.6 0.2-0.9 0.1-0.4 0.1-0.7 0.2-1.1 0.1-0.2 0.2-0.3 0.3-0.4 0 0 0.1 0 0.2 0v0.1c-0.1 0.5-0.3 1.1-0.4 1.6-0.1 0.2-0.1 0.4-0.2 0.6 0 0.1-0.1 0.2-0.2 0.2-0.2 0.1-0.4 0.2-0.6 0.2-0.1 0-0.2 0-0.3 0-0.2-0.1-0.4-0.3-0.6-0.4-0.1-0.1-0.2-0.2-0.3-0.3-0.1-0.2-0.2-0.4-0.3-0.6-0.1-0.2-0.2-0.3-0.4-0.4-0.1-0.1-0.2-0.1-0.3-0.2-0.2-0.2-0.4-0.3-0.7-0.3-0.1 0-0.3 0-0.4 0-0.1 0-0.3 0.1-0.4 0.2-0.2 0.1-0.3 0.1-0.5 0-0.5-0.2-1-0.1-1.5 0.1-0.2 0.1-0.4 0.2-0.6 0.2-0.5 0-0.9 0-1.4 0-0.5 0-0.9-0.1-1.4-0.2-0.2 0-0.4 0-0.6 0-0.4 0.1-0.5 0.4-0.4 0.8 0.1 0.4 0.2 0.9 0.2 1.3 0 0.3 0 0.6 0 0.9 0 0.2 0 0.3 0 0.5 0 0.3-0.1 0.6-0.1 0.9-0.1 0.6-0.4 1.1-0.8 1.5-0.3 0.3-0.7 0.6-1.1 0.7-0.2 0.1-0.4 0.2-0.7 0.3-0.5 0.2-0.9 0.6-1.2 1.1-0.1 0.2-0.2 0.4-0.3 0.6-0.2 0.3-0.3 0.5-0.5 0.8-0.1 0.2-0.3 0.4-0.4 0.6-0.1 0.2-0.3 0.3-0.3 0.5-0.2 0.4-0.3 0.8-0.5 1.2-0.1 0.2-0.1 0.5-0.2 0.7-0.2 0.4-0.2 0.8-0.2 1.3 0 0.1 0 0.2 0 0.4 0 0.5-0.1 1.1-0.1 1.6 0 0.5 0 1 0.1 1.5 0 0.2 0 0.5 0 0.7 0 0.4 0.1 0.9 0.1 1.3 0 0.4 0 0.9 0.2 1.3v0.1c0.1 0.4 0.1 0.8 0.2 1.2 0 0.1 0 0.2 0.1 0.3 0.2 0.6 0.3 1.1 0.5 1.7 0.1 0.4 0.3 0.8 0.4 1.2 0.1 0.4 0.5 0.8 0.6 1.3v0c0.3 0.6 0.6 1.2 1 1.8 0.1 0.2 0.3 0.4 0.4 0.6 0.2 0.3 0.3 0.6 0.5 0.8 0.1 0.2 0.3 0.4 0.4 0.5 0.1 0.2 0.2 0.4 0.4 0.6 0.2 0.2 0.4 0.5 0.6 0.7 0.3 0.5 0.7 0.9 1.1 1.2 0.2 0.2 0.4 0.3 0.6 0.5 0.1 0.1 0.2 0.1 0.2 0.2 0.1 0.1 0.2 0.2 0.4 0.3 0.8 0.4 1.4 1 2.1 1.6 0.3 0.3 0.6 0.6 1 0.8 0.4 0.3 0.7 0.6 1.2 0.7 0 0 0.1 0 0.1 0.1 0.2 0.2 0.5 0.3 0.7 0.4 0.4 0.2 0.9 0.4 1.3 0.6 0.1 0.1 0.3 0.1 0.4 0.2 0.3 0.1 0.6 0.2 0.9 0.3 0.3 0.1 0.5 0.2 0.8 0.2h0.1c0.2 0.1 0.3 0.1 0.5 0 0.1 0 0.2 0 0.2 0.1 0 0.1 0.1 0.1 0.2 0.1 0.1 0 0.2 0 0.4 0 0.1-0.1 0.1-0.2 0.2-0.4 0.1 0.1 0.2 0.1 0.2 0.1 0.1 0.2 0.3 0.2 0.5 0.2h0.1c0.2 0 0.3 0 0.4-0.1 0-0.1 0.2-0.1 0.3-0.1 0.3 0.1 0.6 0.1 0.9 0.2 0.2 0.1 0.5 0.1 0.6-0.1 0.1-0.1 0.2-0.2 0.4-0.1 0.2 0.1 0.3 0.1 0.5 0 0.1 0 0.2 0 0.2 0 0.3 0.1 0.5 0.1 0.8 0.2 0.4 0.1 0.4 0.1 0.7-0.2 0.1-0.1 0.3-0.1 0.4 0 0.1 0.2 0.1 0.3 0.1 0.5 0.1 0 0.1 0 0.2-0.1 0-0.2 0.1-0.2 0.3-0.3 0.1 0.1 0.1 0.1 0.2 0.1 0.2 0.2 0.3 0.2 0.4-0.1 0-0.1 0-0.2 0.1-0.2 0.1 0 0.2 0.1 0.2 0.1 0.1 0.2 0.3 0.3 0.4 0.5 0.2 0.2 0.5 0.2 0.6 0 0.1-0.1 0.2-0.1 0.3-0.1 0-0.1 0-0.2 0-0.3 0.3 0.2 0.2 0.2 0.1 0.2zM37.4 23.8c0.3 0.1 0.5 0.1 0.6-0.1-0.2 0.1-0.4-0.1-0.6 0.1z" fill="#ffffff" fill-rule="nonzero" stroke="none" stroke-width="1" stroke-linecap="butt" stroke-linejoin="miter" stroke-miterlimit="10" stroke-dasharray="" stroke-dashoffset="0" font-family="none" font-weight="none" font-size="none" text-anchor="none" style="mix-blend-mode: normal" data-fill-palette-color="tertiary"></path></g><g transform="matrix(1,0,0,1,95.54069377829978,90)"><svg viewBox="0 0 128.91861244340043 180" height="180" width="128.91861244340043"><g><svg viewBox="0 0 128.91861244340043 180" height="180" width="128.91861244340043"><g><svg viewBox="0 0 192 268.07610898832" height="180" width="128.91861244340043"><g transform="matrix(1,0,0,1,0,147.57107420250168)"><svg viewBox="0 0 192 120.50503478581835" height="120.50503478581835" width="192"><g id="textblocktransform"><svg viewBox="0 0 192 120.50503478581835" height="120.50503478581835" width="192" id="textblock"><g><svg viewBox="0 0 192 64.99465760077707" height="64.99465760077707" width="192"><g transform="matrix(1,0,0,1,0,0)"><svg width="192" viewBox="3.25 -34.85 102.94 34.85" height="64.99465760077707" data-palette-color="#919591"><path d="M12.2-34.85L18.5-15.6 19-15.6 26.3-34.6 33.2-34.4 33.4-12.9 34.35 0 27.6 0 27.85-13 27.3-26.15 21.3-9.6 15.15-9.3 9.55-26.15 9.1-13 9.45 0 3.25 0 3.95-12.15 4.25-33.6 12.2-34.85ZM60.75-33.5L67.85-34.75 67.15-13 67.75 0 60.75 0 61.35-12.15 61.25-14.8 47.8-14.8 47.75-13 48.35 0 41.35 0 41.95-12.15 41.35-33.5 48.45-34.75 47.95-20.1 61.1-20.1 60.75-33.5ZM84.05-34.85L90.34-15.6 90.84-15.6 98.14-34.6 105.05-34.4 105.25-12.9 106.19 0 99.44 0 99.69-13 99.14-26.15 93.14-9.6 87-9.3 81.39-26.15 80.94-13 81.3 0 75.09 0 75.8-12.15 76.09-33.6 84.05-34.85Z" opacity="1" transform="matrix(1,0,0,1,0,0)" fill="#ffffff" class="wordmark-text-0" data-fill-palette-color="primary" id="text-0"></path></svg></g></svg></g><g transform="matrix(1,0,0,1,0,80.33833638853812)"><svg viewBox="0 0 192 40.16669839728023" height="40.16669839728023" width="192"><g transform="matrix(1,0,0,1,0,0)"><svg width="192" viewBox="2.1991228070175444 -32.35 196.70087719298246 41.150000000000006" height="40.16669839728023" data-palette-color="#636365"><path d="M30.55 8.8L30.55 8.8Q27.65 8.8 25.13 7.48 22.6 6.15 20.58 4.17 18.55 2.2 17 0.25L17 0.25Q16.1 0.45 15.18 0.55 14.25 0.65 13.35 0.65L13.35 0.65Q10.15 0.65 7.65-0.6 5.15-1.85 3.73-4.1 2.3-6.35 2.2-9.3L2.2-9.3Q2.15-13.3 4.95-16.25L4.95-16.25Q7.3-18.75 9.35-18.75L9.35-18.75Q10.4-18.75 10.95-18.03 11.5-17.3 12.15-15.85L12.15-15.85Q13.35-13.3 14.98-10.73 16.6-8.15 18.6-5.6L18.6-5.6Q21.7-6.75 23.7-9.65 25.7-12.55 25.6-16.6L25.6-16.6Q25.55-20 24.15-22.25 22.75-24.5 20.53-25.63 18.3-26.75 15.7-26.75L15.7-26.75Q12.95-26.75 10.88-25.68 8.8-24.6 7.35-23.13 5.9-21.65 5.05-20.4L5.05-20.4Q4.85-20.1 4.5-20 4.15-19.9 3.9-19.9L3.9-19.9Q3.15-19.9 2.88-20.5 2.6-21.1 2.6-22L2.6-22Q2.55-23.7 3.53-25.53 4.5-27.35 6.33-28.9 8.15-30.45 10.65-31.4 13.15-32.35 16.2-32.35L16.2-32.35Q22.35-32.35 25.8-28.5 29.25-24.65 29.35-18L29.35-18Q29.45-12.45 27.28-8.25 25.1-4.05 21.4-1.7L21.4-1.7Q22.7-0.4 24.4 0.73 26.1 1.85 28 2.5 29.9 3.15 31.7 3.15L31.7 3.15Q33.05 3.15 34.08 2.85 35.1 2.55 35.3 2.55L35.3 2.55Q35.7 2.55 35.93 3.28 36.15 4 36.15 4.7L36.15 4.7Q36.15 6.85 34.48 7.83 32.8 8.8 30.55 8.8ZM13.75-5L13.75-5Q12-7.2 10.95-9.2 9.9-11.2 8.9-13.55L8.9-13.55Q8.55-14.15 8.1-14.15L8.1-14.15Q7.4-14.15 6.75-13.2 6.1-12.25 6.15-10.9L6.15-10.9Q6.2-8.6 8.33-6.95 10.45-5.3 13.75-5ZM46.61 0.65L46.61 0.65Q44.11 0.65 42.73-0.8 41.36-2.25 41.36-5L41.36-5Q41.36-6.95 41.91-9L41.91-9Q42.16-9.85 42.31-10.7 42.46-11.55 42.46-12.4L42.46-12.4Q42.46-14.6 41.11-15.25L41.11-15.25Q39.81-15.95 39.81-16.75L39.81-16.75Q39.81-17.55 40.48-18.35 41.16-19.15 42.16-19.68 43.16-20.2 44.16-20.2L44.16-20.2Q47.01-20.2 47.01-15.55L47.01-15.55Q47.01-14.05 46.78-12.78 46.56-11.5 46.26-10.35L46.26-10.35Q46.06-9.55 45.93-8.75 45.81-7.95 45.81-7.35L45.81-7.35Q45.81-4.85 48.26-4.85L48.26-4.85Q50.56-4.85 52.56-7.3 54.56-9.75 55.86-14.15L55.86-14.15 55.81-15.1Q55.71-17.6 56.68-18.9 57.66-20.2 59.56-20.2L59.56-20.2Q61.21-20.2 61.21-19.15L61.21-19.15Q61.21-18.8 61.08-18.25 60.96-17.7 60.71-16.95L60.71-16.95Q60.21-15.1 59.86-13.03 59.51-10.95 59.51-9.2L59.51-9.2Q59.51-7.25 60.11-5.98 60.71-4.7 62.36-4.25L62.36-4.25Q62.81-4.2 63.08-3.98 63.36-3.75 63.36-3.05L63.36-3.05Q63.36-1.85 62.36-0.7 61.36 0.45 59.46 0.45L59.46 0.45Q55.81 0.45 55.81-4.7L55.81-4.7Q55.81-5.6 55.96-7.4L55.96-7.4 55.86-7.45Q52.71 0.65 46.61 0.65ZM77.32-24.85L77.32-24.85Q75.92-24.9 75.07-25.7 74.22-26.5 74.22-27.95L74.22-27.95Q74.27-29.5 75.27-30.48 76.27-31.45 77.82-31.4L77.82-31.4Q79.27-31.35 80.09-30.55 80.92-29.75 80.87-28.3L80.87-28.3Q80.82-26.8 79.87-25.83 78.92-24.85 77.32-24.85ZM77.37 0.5L77.37 0.5Q75.87 0.5 75.02-0.33 74.17-1.15 74.17-3.15L74.17-3.15Q74.17-4.3 74.39-5.4 74.62-6.5 74.92-7.55L74.92-7.55Q75.27-8.65 75.49-9.8 75.72-10.95 75.72-12.25L75.72-12.25Q75.72-13.15 75.47-13.98 75.22-14.8 74.37-15.2L74.37-15.2Q73.72-15.55 73.24-15.93 72.77-16.3 72.77-16.9L72.77-16.9Q72.77-17.6 73.42-18.4 74.07-19.2 75.14-19.78 76.22-20.35 77.37-20.35L77.37-20.35Q78.62-20.35 79.19-19.7 79.77-19.05 79.97-18.05 80.17-17.05 80.17-16L80.17-16Q80.17-14.4 79.92-12.88 79.67-11.35 79.42-10.05L79.42-10.05Q79.22-9.1 79.12-8.3 79.02-7.5 79.02-6.8L79.02-6.8Q79.02-5.55 79.62-4.93 80.22-4.3 81.32-3.75L81.32-3.75Q81.77-3.5 81.77-3L81.77-3Q81.77-2.6 81.37-1.75 80.97-0.9 79.99-0.2 79.02 0.5 77.37 0.5ZM100.67 0.55L100.67 0.55Q98.92 0.55 97.52 0.45 96.12 0.35 95.07 0.15L95.07 0.15Q93.97-0.05 93.3-0.4 92.62-0.75 92.22-1.2L92.22-1.2Q91.92-1.55 91.72-2.15 91.52-2.75 91.52-3.25L91.52-3.25Q91.52-4.85 92.8-5.95 94.07-7.05 95.77-8.2L95.77-8.2 102.42-12.8Q103.77-13.85 103.77-14.3L103.77-14.3Q103.77-15.4 100.77-15.4L100.77-15.4Q98.77-15.4 97.57-14.93 96.37-14.45 95.92-13.8L95.92-13.8Q95.62-13.45 95.4-13.28 95.17-13.1 94.77-13.1L94.77-13.1Q94.02-13.1 93.25-13.93 92.47-14.75 92.47-16.15L92.47-16.15Q92.47-17.8 93.72-18.7 94.97-19.6 97-19.98 99.02-20.35 101.32-20.35L101.32-20.35Q103.82-20.35 105.6-20.08 107.37-19.8 108.47-19.1L108.47-19.1Q109.32-18.6 109.75-17.7 110.17-16.8 110.17-15.8L110.17-15.8Q110.17-14.1 108.45-12.6 106.72-11.1 103.67-9.25L103.67-9.25 98.07-5.85Q97.57-5.55 97.57-5.15L97.57-5.15Q97.57-4.6 98.27-4.55L98.27-4.55Q98.77-4.5 99.52-4.48 100.27-4.45 101.17-4.45L101.17-4.45Q105.22-4.45 107.47-5.5L107.47-5.5Q108.32-5.95 108.67-5.95L108.67-5.95Q109.22-5.95 109.75-5.28 110.27-4.6 110.27-3.55L110.27-3.55Q110.27-1.15 107.62-0.3 104.97 0.55 100.67 0.55ZM127.88 0.7L127.88 0.7Q126.48 0.7 125.51-0.13 124.53-0.95 124.38-3.2L124.38-3.2Q124.28-4.9 123.96-7 123.63-9.1 123.18-10.95 122.73-12.8 122.13-13.75L122.13-13.75Q121.78-14.3 121.36-14.58 120.93-14.85 120.08-14.95L120.08-14.95Q119.18-15 119.18-16.25L119.18-16.25Q119.18-18.3 120.28-19.28 121.38-20.25 122.78-20.25L122.78-20.25Q124.28-20.25 125.23-19.28 126.18-18.3 126.71-16.68 127.23-15.05 127.46-13.05 127.68-11.05 127.68-9L127.68-9Q127.68-8.25 127.66-7.53 127.63-6.8 127.63-6.1L127.63-6.1Q127.63-5.6 127.83-5.28 128.03-4.95 128.83-4.95L128.83-4.95Q129.93-4.95 131.43-5.53 132.93-6.1 134.06-7.45 135.18-8.8 135.18-11.05L135.18-11.05Q135.18-12.2 134.83-12.98 134.48-13.75 133.88-14.45L133.88-14.45Q133.68-14.7 133.53-14.95 133.38-15.2 133.38-15.55L133.38-15.55Q133.38-16.5 134.16-17.07 134.93-17.65 135.91-17.93 136.88-18.2 137.53-18.2L137.53-18.2Q138.18-18.2 138.56-17.88 138.93-17.55 139.13-16.6L139.13-16.6Q139.33-15.95 139.43-15.18 139.53-14.4 139.53-13.4L139.53-13.4Q139.53-11.85 139.41-10.9 139.28-9.95 139.13-9.2L139.13-9.2Q138.98-8.55 138.91-7.93 138.83-7.3 138.83-6.45L138.83-6.45Q138.83-5.55 139.18-5.25 139.53-4.95 140.28-4.95L140.28-4.95Q143.13-4.95 144.93-6.93 146.73-8.9 146.73-11.75L146.73-11.75Q146.73-12.75 146.43-13.63 146.13-14.5 145.38-15.3L145.38-15.3Q144.98-15.8 144.73-16.13 144.48-16.45 144.48-16.95L144.48-16.95Q144.48-17.85 145.31-18.6 146.13-19.35 147.26-19.83 148.38-20.3 149.28-20.3L149.28-20.3Q150.63-20.3 151.03-19.05 151.43-17.8 151.43-16.2L151.43-16.2Q151.43-13.5 150.66-10.58 149.88-7.65 148.43-5.08 146.98-2.5 144.88-0.9 142.78 0.7 140.13 0.7L140.13 0.7Q137.43 0.7 136.43-0.85 135.43-2.4 135.58-4.6L135.58-4.6Q134.08-2.3 132.06-0.8 130.03 0.7 127.88 0.7ZM165.94-24.85L165.94-24.85Q164.54-24.9 163.69-25.7 162.84-26.5 162.84-27.95L162.84-27.95Q162.89-29.5 163.89-30.48 164.89-31.45 166.44-31.4L166.44-31.4Q167.89-31.35 168.72-30.55 169.54-29.75 169.49-28.3L169.49-28.3Q169.44-26.8 168.49-25.83 167.54-24.85 165.94-24.85ZM165.99 0.5L165.99 0.5Q164.49 0.5 163.64-0.33 162.79-1.15 162.79-3.15L162.79-3.15Q162.79-4.3 163.02-5.4 163.24-6.5 163.54-7.55L163.54-7.55Q163.89-8.65 164.12-9.8 164.34-10.95 164.34-12.25L164.34-12.25Q164.34-13.15 164.09-13.98 163.84-14.8 162.99-15.2L162.99-15.2Q162.34-15.55 161.87-15.93 161.39-16.3 161.39-16.9L161.39-16.9Q161.39-17.6 162.04-18.4 162.69-19.2 163.77-19.78 164.84-20.35 165.99-20.35L165.99-20.35Q167.24-20.35 167.82-19.7 168.39-19.05 168.59-18.05 168.79-17.05 168.79-16L168.79-16Q168.79-14.4 168.54-12.88 168.29-11.35 168.04-10.05L168.04-10.05Q167.84-9.1 167.74-8.3 167.64-7.5 167.64-6.8L167.64-6.8Q167.64-5.55 168.24-4.93 168.84-4.3 169.94-3.75L169.94-3.75Q170.39-3.5 170.39-3L170.39-3Q170.39-2.6 169.99-1.75 169.59-0.9 168.62-0.2 167.64 0.5 165.99 0.5ZM189.3 0.55L189.3 0.55Q187.55 0.55 186.15 0.45 184.75 0.35 183.7 0.15L183.7 0.15Q182.6-0.05 181.92-0.4 181.25-0.75 180.85-1.2L180.85-1.2Q180.55-1.55 180.35-2.15 180.15-2.75 180.15-3.25L180.15-3.25Q180.15-4.85 181.42-5.95 182.7-7.05 184.4-8.2L184.4-8.2 191.05-12.8Q192.4-13.85 192.4-14.3L192.4-14.3Q192.4-15.4 189.4-15.4L189.4-15.4Q187.4-15.4 186.2-14.93 185-14.45 184.55-13.8L184.55-13.8Q184.25-13.45 184.02-13.28 183.8-13.1 183.4-13.1L183.4-13.1Q182.65-13.1 181.87-13.93 181.1-14.75 181.1-16.15L181.1-16.15Q181.1-17.8 182.35-18.7 183.6-19.6 185.62-19.98 187.65-20.35 189.95-20.35L189.95-20.35Q192.45-20.35 194.22-20.08 196-19.8 197.1-19.1L197.1-19.1Q197.95-18.6 198.37-17.7 198.8-16.8 198.8-15.8L198.8-15.8Q198.8-14.1 197.07-12.6 195.35-11.1 192.3-9.25L192.3-9.25 186.7-5.85Q186.2-5.55 186.2-5.15L186.2-5.15Q186.2-4.6 186.9-4.55L186.9-4.55Q187.4-4.5 188.15-4.48 188.9-4.45 189.8-4.45L189.8-4.45Q193.85-4.45 196.1-5.5L196.1-5.5Q196.95-5.95 197.3-5.95L197.3-5.95Q197.85-5.95 198.37-5.28 198.9-4.6 198.9-3.55L198.9-3.55Q198.9-1.15 196.25-0.3 193.6 0.55 189.3 0.55Z" opacity="1" transform="matrix(1,0,0,1,0,0)" fill="#ffffff" class="slogan-text-1" data-fill-palette-color="secondary" id="text-1"></path></svg></g></svg></g></svg></g></svg></g><g transform="matrix(1,0,0,1,39.6384,0)"><svg viewBox="0 0 112.7232 132.22739541474064" height="132.22739541474064" width="112.7232"><g><svg xmlns="http://www.w3.org/2000/svg" xmlns:xlink="http://www.w3.org/1999/xlink" version="1.1" x="0" y="0" viewBox="83.796 54 344.408 404" style="enable-background:new 0 0 512 512;" xml:space="preserve" height="132.22739541474064" width="112.7232" class="icon-icon-0" data-fill-palette-color="accent" id="icon-0"><g fill="#2e9d9d" data-fill-palette-color="accent"><g fill="#2e9d9d" data-fill-palette-color="accent"><g fill="#2e9d9d" data-fill-palette-color="accent"><path d="M370.393 148.228A192.5 192.5 0 0 1 406.815 184.118L428.204 162.796 391.992 126.697z" fill="#ffffff" data-fill-palette-color="accent"></path><path d="M83.796 162.796L104.863 183.797A192.5 192.5 0 0 1 141.362 147.984L120.009 126.697z" fill="#ffffff" data-fill-palette-color="accent"></path><path d="M255.713 110.014C264.809 110.014 273.876 110.655 282.835 111.928V54H231.573V111.532A193 193 0 0 1 255.713 110.014" fill="#ffffff" data-fill-palette-color="accent"></path></g><path d="M255.713 142.52C168.434 142.52 97.428 213.282 97.428 300.26S168.434 458 255.713 458 413.997 387.238 413.997 300.259 342.991 142.52 255.713 142.52M249.998 390.298C238.867 390.298 230.473 381.627 230.473 370.129 230.473 358.306 238.784 349.725 250.234 349.725 261.549 349.725 269.761 358.306 269.761 370.129 269.761 381.816 261.45 390.298 249.998 390.298M277.133 294.742C267.908 305.61 264.409 314.445 265.047 325.246L265.512 337.306H236.065L235.2 326.101C233.574 311.226 239.059 295.774 251.068 281.41 260.677 270.127 266.221 261.864 266.221 252.897 266.221 243.432 260.574 238.543 249.438 238.366 239.453 238.367 230.629 242.726 223.183 249.04L213.311 223.211C224.538 214.176 239.537 210.22 253.761 210.22 284.796 210.22 298.687 230.359 298.687 250.318 298.688 267.834 289.346 280.285 277.133 294.742" fill="#ffffff" data-fill-palette-color="accent"></path></g></g></svg></g></svg></g><g></g></svg></g></svg></g></svg></g></svg></g><defs></defs></svg><rect width="320" height="360" fill="none" stroke="none" visibility="hidden"></rect></g></svg></g></svg>